<?xml version="1.0" encoding="utf-8"?>
<!-- Generator: Adobe Illustrator 19.2.1, SVG Export Plug-In . SVG Version: 6.00 Build 0)  -->
<svg version="1.1" xmlns="http://www.w3.org/2000/svg" xmlns:xlink="http://www.w3.org/1999/xlink" x="0px" y="0px"
	 viewBox="0 0 512 512" style="enable-background:new 0 0 512 512;" xml:space="preserve">
<style type="text/css">
	.st0{fill:#298063;}
	.st1{fill:#87B7DD;}
	.st2{fill:#1F3049;}
	.st3{fill:#B9BDC2;}
	.st4{fill:#CA6A46;}
	.st5{fill:#5082A9;}
	.st6{fill:#D5872A;}
	.st7{fill:#57646E;}
	.st8{fill:#75A897;}
	.st9{fill:#C93A3A;}
	.st10{fill:#E6CA56;}
	.st11{fill:#DA8B80;}
	.st12{fill:#E4C856;}
	.st13{fill:#C9402E;}
	.st14{fill:#A32929;}
	.st15{clip-path:url(#SVGID_2_);}
	.st16{fill:#D17F73;}
	.st17{fill:#E6A585;}
	.st18{fill:#733D28;}
	.st19{fill:#FFFFFF;}
	.st20{fill:#4E3333;}
	.st21{clip-path:url(#SVGID_4_);}
	.st22{fill:#FFB6AB;}
	.st23{clip-path:url(#SVGID_6_);}
	.st24{clip-path:url(#SVGID_8_);}
	.st25{clip-path:url(#SVGID_10_);}
	.st26{fill:#F09162;}
	.st27{clip-path:url(#SVGID_12_);}
	.st28{clip-path:url(#SVGID_14_);}
	.st29{clip-path:url(#SVGID_16_);}
	.st30{clip-path:url(#SVGID_18_);}
	.st31{clip-path:url(#SVGID_20_);}
	.st32{clip-path:url(#SVGID_22_);}
	.st33{fill:#572020;}
	.st34{clip-path:url(#SVGID_24_);}
	.st35{clip-path:url(#SVGID_26_);}
	.st36{clip-path:url(#SVGID_28_);}
	.st37{fill:#A34B2A;}
	.st38{clip-path:url(#SVGID_30_);}
	.st39{clip-path:url(#SVGID_32_);}
	.st40{clip-path:url(#SVGID_34_);}
	.st41{clip-path:url(#SVGID_36_);}
	.st42{fill:#E09C6F;}
	.st43{clip-path:url(#SVGID_38_);}
	.st44{clip-path:url(#SVGID_40_);}
	.st45{clip-path:url(#SVGID_42_);}
	.st46{clip-path:url(#SVGID_44_);}
	.st47{clip-path:url(#SVGID_46_);}
	.st48{clip-path:url(#SVGID_48_);}
	.st49{clip-path:url(#SVGID_50_);}
	.st50{clip-path:url(#SVGID_52_);}
	.st51{clip-path:url(#SVGID_54_);}
	.st52{clip-path:url(#SVGID_56_);}
	.st53{clip-path:url(#SVGID_58_);}
	.st54{clip-path:url(#SVGID_60_);}
	.st55{clip-path:url(#SVGID_62_);}
	.st56{clip-path:url(#SVGID_64_);fill:#75A897;}
	.st57{clip-path:url(#SVGID_64_);fill:#A34B2A;}
	.st58{clip-path:url(#SVGID_64_);}
	.st59{clip-path:url(#SVGID_64_);fill:#1F3049;}
	.st60{clip-path:url(#SVGID_66_);}
	.st61{clip-path:url(#SVGID_68_);}
	.st62{clip-path:url(#SVGID_70_);}
	.st63{clip-path:url(#SVGID_72_);}
	.st64{clip-path:url(#SVGID_74_);}
	.st65{clip-path:url(#SVGID_76_);}
	.st66{clip-path:url(#SVGID_78_);}
	.st67{clip-path:url(#SVGID_80_);}
	.st68{clip-path:url(#SVGID_82_);}
	.st69{clip-path:url(#SVGID_84_);}
	.st70{clip-path:url(#SVGID_86_);}
	.st71{clip-path:url(#SVGID_88_);}
	.st72{clip-path:url(#SVGID_90_);}
	.st73{clip-path:url(#SVGID_92_);}
	.st74{clip-path:url(#SVGID_94_);}
	.st75{clip-path:url(#SVGID_96_);}
	.st76{clip-path:url(#SVGID_98_);}
	.st77{clip-path:url(#SVGID_98_);fill:none;}
	.st78{clip-path:url(#SVGID_100_);}
</style>
<g id="ICON">
	<g>
		<ellipse class="st0" cx="256.4" cy="254.4" rx="228.4" ry="228.4"/>
	</g>
</g>
<g id="Layer_6">
	<g>
		<defs>
			<ellipse id="SVGID_1_" cx="256.4" cy="253.4" rx="228.4" ry="228.4"/>
		</defs>
		<clipPath id="SVGID_2_">
			<use xlink:href="#SVGID_1_"  style="overflow:visible;"/>
		</clipPath>
		<g class="st15">
			<g>
				
					<ellipse transform="matrix(0.9453 -0.3262 0.3262 0.9453 -63.8632 65.9093)" class="st16" cx="164.6" cy="223.4" rx="22.2" ry="38.6"/>
				
					<ellipse transform="matrix(0.3262 -0.9453 0.9453 0.3262 23.4021 479.6433)" class="st16" cx="348.1" cy="223.4" rx="38.6" ry="22.2"/>
			</g>
			<path class="st6" d="M489.8,553.6l-0.1-1.1c0-64.5-24.1-126.9-53.5-138.8l-125.3-50.6c-29.4-11.9-77.6-11.9-107.1-0.1L76.6,413.8
				C47.2,425.7,23.1,488,23.1,552.5l-0.1,1.1H489.8z"/>
			<rect x="200.9" y="311.2" class="st16" width="110.9" height="73.4"/>
			<g>
				<path class="st17" d="M351.2,235.7c0,54.1-42.4,97.9-94.8,97.9l0,0c-52.4,0-94.8-43.8-94.8-97.9v-56.4c0-54,42.4-97.8,94.8-97.8
					l0,0c52.4,0,94.8,43.8,94.8,97.8V235.7z"/>
			</g>
			<g>
				<polygon class="st2" points="218.7,421.5 164.9,386.7 181.7,347.9 256.3,369.5 				"/>
				<g>
					<polygon class="st2" points="294.1,421.5 347.8,386.7 331.1,347.9 256.4,369.5 					"/>
				</g>
			</g>
			<g>
				<g>
					<polygon class="st18" points="165.8,224 153.3,224 153.3,141.8 179.1,128.5 					"/>
					<path class="st18" d="M317.8,71h-58.3h-6.3H195c-23,0-41.6,18.7-41.6,41.6v37.6v27c11.2-29.8,22.3-42.1,46-45.6
						c4.2,14,28.1,24.8,57.1,24.8c28.9,0,52.8-10.8,57-24.8c23.8,3.5,34.8,15.9,46,45.6v-27.1v-37.5C359.4,89.7,340.8,71,317.8,71z"
						/>
				</g>
				<polygon class="st18" points="359.4,224 347,224 333.6,128.5 359.4,141.8 				"/>
			</g>
			<g>
				<circle class="st2" cx="223.5" cy="214.2" r="9.9"/>
				<circle class="st2" cx="289.2" cy="214.2" r="9.9"/>
			</g>
			<g>
				<path class="st2" d="M220.1,259.6c0.7,23,16.6,41.4,36.3,41.4c19.6,0,35.6-18.4,36.3-41.4c-10.1,5.4-22.7,8.6-36.3,8.6
					C242.8,268.1,230.2,264.9,220.1,259.6z"/>
				<path class="st19" d="M236.1,281.4h40.7c3.5,0,6.3-2.8,6.3-6.3v-11.4c-8,2.8-17,4.4-26.6,4.4c-9.5,0-18.6-1.6-26.6-4.4v11.4
					C229.8,278.6,232.6,281.4,236.1,281.4z"/>
			</g>
			<g>
				<g>
					<path class="st20" d="M201.7,197.8c10.1-2.1,20.2-4.2,30.2-6.3c7.9-1.6,4.5-13.7-3.3-12.1c-10.1,2.1-20.2,4.2-30.2,6.3
						C190.5,187.4,193.9,199.4,201.7,197.8L201.7,197.8z"/>
				</g>
				<g>
					<path class="st20" d="M314.3,185.8c-10.1-2.1-20.2-4.2-30.2-6.3c-7.9-1.6-11.2,10.4-3.3,12.1c10.1,2.1,20.2,4.2,30.2,6.3
						C318.9,199.4,322.2,187.4,314.3,185.8L314.3,185.8z"/>
				</g>
			</g>
		</g>
	</g>
</g>
</svg>
